<svg width="71" height="61" viewBox="0 0 71 61" fill="none" xmlns="http://www.w3.org/2000/svg">
<g clip-path="url(#clip0_74_213)">
<path d="M35.5 0C15.975 0 0 13.7495 0 30.6837C0 45.995 12.993 58.7033 29.962 61V39.5643H20.945V30.6837H29.962V23.9162C29.962 16.2299 35.2515 12.004 43.3809 12.004C47.2504 12.004 51.2974 12.5858 51.2974 12.5858V20.1496H46.8244C42.4224 20.1496 41.038 22.5075 41.038 24.9267V30.6837H50.9069L49.3094 39.5643H41.038V61C49.4033 59.8604 57.0208 56.1785 62.5152 50.6192C68.0096 45.0598 71.0189 37.9892 70.9999 30.6837C70.9999 13.7495 55.0249 0 35.5 0Z" fill="black"/>
</g>
<defs>
<clipPath id="clip0_74_213">
<rect width="71" height="61" fill="white"/>
</clipPath>
</defs>
</svg>
