<svg width="71" height="61" viewBox="0 0 71 61" fill="none" xmlns="http://www.w3.org/2000/svg">
<g clip-path="url(#clip0_74_215)">
<path d="M20.59 0H50.41C61.77 0 71 7.93 71 17.69V43.31C71 48.0017 68.8307 52.5012 64.9693 55.8187C61.108 59.1362 55.8708 61 50.41 61H20.59C9.23 61 0 53.07 0 43.31V17.69C0 12.9983 2.1693 8.4988 6.03067 5.18128C9.89205 1.86376 15.1292 0 20.59 0ZM19.88 6.1C16.4905 6.1 13.2399 7.25682 10.8432 9.31597C8.44646 11.3751 7.1 14.1679 7.1 17.08V43.92C7.1 49.9895 12.8155 54.9 19.88 54.9H51.12C54.5095 54.9 57.7601 53.7432 60.1568 51.684C62.5535 49.6249 63.9 46.8321 63.9 43.92V17.08C63.9 11.0105 58.1845 6.1 51.12 6.1H19.88ZM54.1375 10.675C55.3144 10.675 56.4431 11.0767 57.2753 11.7917C58.1075 12.5066 58.575 13.4764 58.575 14.4875C58.575 15.4986 58.1075 16.4684 57.2753 17.1833C56.4431 17.8983 55.3144 18.3 54.1375 18.3C52.9606 18.3 51.8319 17.8983 50.9997 17.1833C50.1675 16.4684 49.7 15.4986 49.7 14.4875C49.7 13.4764 50.1675 12.5066 50.9997 11.7917C51.8319 11.0767 52.9606 10.675 54.1375 10.675ZM35.5 15.25C40.2076 15.25 44.7224 16.8567 48.0511 19.7166C51.3799 22.5766 53.25 26.4554 53.25 30.5C53.25 34.5446 51.3799 38.4234 48.0511 41.2834C44.7224 44.1433 40.2076 45.75 35.5 45.75C30.7924 45.75 26.2776 44.1433 22.9489 41.2834C19.6201 38.4234 17.75 34.5446 17.75 30.5C17.75 26.4554 19.6201 22.5766 22.9489 19.7166C26.2776 16.8567 30.7924 15.25 35.5 15.25ZM35.5 21.35C32.6754 21.35 29.9666 22.314 27.9693 24.03C25.972 25.7459 24.85 28.0733 24.85 30.5C24.85 32.9267 25.972 35.2541 27.9693 36.97C29.9666 38.686 32.6754 39.65 35.5 39.65C38.3246 39.65 41.0334 38.686 43.0307 36.97C45.028 35.2541 46.15 32.9267 46.15 30.5C46.15 28.0733 45.028 25.7459 43.0307 24.03C41.0334 22.314 38.3246 21.35 35.5 21.35Z" fill="black"/>
</g>
<defs>
<clipPath id="clip0_74_215">
<rect width="71" height="61" fill="white"/>
</clipPath>
</defs>
</svg>
