<svg width="71" height="61" viewBox="0 0 71 61" fill="none" xmlns="http://www.w3.org/2000/svg">
<g clip-path="url(#clip0_74_217)">
<path d="M71 7.17647C68.3867 8.43235 65.5698 9.25765 62.6511 9.65235C65.6377 7.75059 67.9455 4.73647 69.0316 1.11235C66.2146 2.90647 63.0923 4.16235 59.8002 4.88C57.119 1.79412 53.3518 0 49.0755 0C41.0999 0 34.5837 6.88941 34.5837 15.3935C34.5837 16.6135 34.7194 17.7976 34.957 18.91C22.8748 18.2641 12.1162 12.1282 4.95507 2.83471C3.69933 5.09529 2.98662 7.75059 2.98662 10.5494C2.98662 15.8959 5.53203 20.6324 9.46893 23.3235C7.05927 23.3235 4.81931 22.6059 2.85086 21.5294C2.85086 21.5294 2.85086 21.5294 2.85086 21.6371C2.85086 29.1006 7.87381 35.3441 14.5258 36.7435C13.304 37.1024 12.0143 37.2818 10.6907 37.2818C9.77438 37.2818 8.85803 37.1741 7.97562 36.9947C9.80832 43.0588 15.1367 47.58 21.5511 47.6877C16.5961 51.85 10.3174 54.29 3.46176 54.29C2.30784 54.29 1.15392 54.2182 0 54.0747C6.44838 58.4524 14.1185 61 22.3317 61C49.0755 61 63.771 37.5329 63.771 17.1876C63.771 16.5059 63.771 15.86 63.7371 15.1782C66.588 13.0253 69.0315 10.2982 71 7.17647Z" fill="black"/>
</g>
<defs>
<clipPath id="clip0_74_217">
<rect width="71" height="61" fill="white"/>
</clipPath>
</defs>
</svg>
