<svg width="71" height="61" viewBox="0 0 71 61" fill="none" xmlns="http://www.w3.org/2000/svg">
<g clip-path="url(#clip0_74_219)">
<path d="M28.4 43.5714L46.8245 30.5L28.4 17.4286V43.5714ZM69.438 9.455C69.8995 11.5029 70.219 14.2479 70.432 17.7336C70.6805 21.2193 70.787 24.2257 70.787 26.84L71 30.5C71 40.0421 70.432 47.0571 69.438 51.545C68.5505 55.4664 66.4915 57.9936 63.2965 59.0829C61.628 59.6493 58.575 60.0414 53.889 60.3029C49.274 60.6079 45.0495 60.7386 41.1445 60.7386L35.5 61C20.6255 61 11.36 60.3029 7.7035 59.0829C4.5085 57.9936 2.4495 55.4664 1.562 51.545C1.1005 49.4971 0.781 46.7521 0.568 43.2664C0.3195 39.7807 0.213 36.7743 0.213 34.16L0 30.5C0 20.9579 0.568 13.9429 1.562 9.455C2.4495 5.53357 4.5085 3.00643 7.7035 1.91714C9.372 1.35071 12.425 0.958571 17.111 0.697142C21.726 0.392142 25.9505 0.261428 29.8555 0.261428L35.5 0C50.3745 0 59.64 0.697143 63.2965 1.91714C66.4915 3.00643 68.5505 5.53357 69.438 9.455Z" fill="black"/>
</g>
<defs>
<clipPath id="clip0_74_219">
<rect width="71" height="61" fill="white"/>
</clipPath>
</defs>
</svg>
